<!DOCTYPE svg PUBLIC "-//W3C//DTD SVG 1.1//EN"
    "http://www.w3.org/Graphics/SVG/1.1/DTD/svg11.dtd">
<svg width="120" height="140" viewBox="0 100% 100%" version="1.1"  xmlns="http://www.w3.org/2000/svg">
<path d="M 116.34375,24.15625 107,27.75 C 98.388924,36.330187 88.384656,43.317564 78.46875,50.28125 71.614668,54.614288 74.913576,52.632759 68.625,56.25 l 19.84375,0 c 5.737763,-3.629085 2.743854,-1.645753 9.03125,-5.96875 7.64011,-5.442936 15.28472,-10.851162 22.75,-16.53125 2.89682,7.326041 2.68816,15.640299 2.71875,23.40625 -0.4926,6.748768 -0.42003,9.397869 -1.96875,16.15625 -2.86943,12.521786 -8.83939,24.011772 -15.9375,34.625 -1.75446,2.36042 -3.44373,4.76615 -5.28125,7.0625 -5.665068,7.07963 -12.295905,13.24013 -19.15625,19.125 l 20.9375,0 c 0.59809,-0.66444 1.18675,-1.36153 1.8125,-2 3.60187,-3.67513 7.26262,-7.21225 10.59375,-11.15625 4.82381,-5.71132 5.31368,-6.69742 9.75,-13.03125 6.68532,-10.809194 12.73663,-22.209139 15.8125,-34.625 1.61501,-6.519064 1.72646,-9.529719 2.40625,-16 3.5534,3.966525 7.10763,7.936234 10.6875,11.875 6.05014,5.904871 5.35045,3.57995 15.96875,2.0625 l 8.03125,0.40625 c -0.44877,-0.06977 -0.94621,8.58e-4 -1.34375,-0.21875 -0.42068,-0.232395 -0.83142,-0.49627 -1.21875,-0.78125 0.68302,-0.05183 1.34512,-0.08376 2.09375,-0.125 l -2.28125,0 c -0.58932,-0.443871 -1.15279,-0.912325 -1.75,-1.34375 -10.74706,-10.816249 -21.25397,-21.987435 -30.0625,-34.46875 -0.68411,-0.987694 -1.41328,-1.978676 -2.09375,-2.96875 -0.0927,-0.229744 -0.18143,-0.459675 -0.28125,-0.6875 -0.36122,-0.581354 -0.60933,-1.003071 -0.90625,-1.5 -0.20412,-0.838422 -0.33097,-1.754988 -1.0625,-1.875 -0.0235,-0.0039 -0.039,0.0039 -0.0625,0 -2.42526,-3.972553 -3.39708,-3.916949 -11.71875,-2.03125 -4.84163,-0.860255 -8.04403,-1.435569 -9.59375,-1.5 z" fill="#aaa" transform="translate(-67, 0) rotate(-10)"/>
</svg>
